<svg width="207" height="44" viewBox="0 0 207 44" fill="none" xmlns="http://www.w3.org/2000/svg">
<g clip-path="url(#clip0_reelevant_light)">
<path d="M43.9899 30.0143L33.9382 19.9626H43.9899V10.0495L33.9382 0H0V33.9382L10.0517 43.9899H19.9648V33.9382L30.0165 43.9899H43.9921V30.0143H43.9899Z" fill="#000000"/>
<path d="M174.212 43.9855L187.444 43.9899V0.00219727H180.404V36.4016H179.696L176.755 0.00219727H163.402V43.9855H170.627V7.59266H171.201L174.212 43.9855Z" fill="#000000"/>
<path d="M154.201 35.5658L154.797 43.9899H161.908L158.578 0.00219727H146.195L142.863 43.9855H149.934L150.605 35.5636H154.201V35.5658ZM152.712 7.58386L153.834 27.3507H150.939L152.043 7.58386H152.712Z" fill="#000000"/>
<path d="M136.617 0.00219727L134.44 36.4192H133.824L131.723 0.00219727H124.639L128.14 43.9899H140.2L143.695 0.00219727H136.617Z" fill="#000000"/>
<path d="M66.3339 43.9679C66.3514 37.8489 66.3339 29.8208 66.3339 25.3998C66.3339 23.704 64.9459 22.3359 63.2501 22.3359H62.4825V21.709H63.2633C64.9657 21.709 66.347 20.3299 66.347 18.6253C66.347 16.3488 66.3426 10.6566 66.3382 6.16079C66.336 2.75597 63.5756 0 60.1708 0H48.2188V43.9745L55.686 43.9657V26.086H58.7345V43.9679C62.1569 43.9833 64.6248 44.0317 66.3316 43.9679H66.3339ZM55.6882 18.1634V7.8478H58.7367V18.1634H55.6882Z" fill="#000000"/>
<path d="M122.966 7.85V0.00219727H111.348V43.9745H122.94V36.0629H118.846V26.0772H122.975V18.1788H118.842V7.85H122.966Z" fill="#000000"/>
<path d="M94.1035 7.85V0.00219727H82.4902V43.9899H94.0815V36.0761H89.9838V26.086H94.1145V18.1854H89.9816V7.85H94.1035Z" fill="#000000"/>
<path d="M80.4512 7.85V0.00219727H68.8379V43.9745H80.4292V36.0629H76.3316V26.0772H80.46V18.1788H76.3294V7.85H80.4512Z" fill="#000000"/>
<path d="M206.337 0.00219727H188.998V7.8478H193.864V43.9877H201.359V7.85H206.337V0.00219727Z" fill="#000000"/>
<path d="M96.2676 0.00219727V43.9899H109.524V36.0673H103.616V0.00219727H96.2676Z" fill="#000000"/>
</g>
<defs>
<clipPath id="clip0_reelevant_light">
<rect width="207" height="44" fill="white"/>
</clipPath>
</defs>
</svg>
